<?xml-stylesheet type="text/css" href="history_road_img.css" ?>
<svg version="1.1" id="图层_1" xmlns="http://www.w3.org/2000/svg" x="0" y="0" viewBox="0 0 1207 404" xml:space="preserve">
  <style>
    .st0{fill:#333}
    .st1{font-family:&apos;DINAlternate-Bold&apos;}
    .st2{font-size:24px}
    .st3{font-family:&apos;PingFangSC-Regular-GBpc-EUC-H&apos;}
    .st4{font-size:16px}
    .st5{fill:#4b4c5f}
    .st6,.st7{fill-rule:evenodd;clip-rule:evenodd}
    .st6{stroke:#ccc;fill:none}
    .st7{fill:#999}
    .st8{fill:#fff}
    .st5:hover{fill:#1FA3FF}
  </style>
  <g id="页面合集">
    <g id="发展历程" transform="translate(-115 -747)">
      <g id="编组-5" transform="translate(120 746.5)">
        <g id="_x31_" transform="translate(20 10.5)">
          <g id="wz1" >
            <text transform="translate(32.2479 268.1111)" class="st0 st1 st2">
              2018-09
            </text>
            <text transform="translate(39.1874 296.1111)" class="st0 st3 st4">
              项目启动
            </text>
          </g>
          <path id="路径" class="st5" d="M71.2 2.1c-38.7 0-70 31.3-70 70 0 45.8 70 91.4 70 91.4s70-45.9 70-91.4c0-38.6-31.4-70-70-70z"/>
          <g id="点" transform="rotate(-90 131 71)">
            <circle id="椭圆形" class="st6" cx="7.9" cy="11.2" r="10"/>
            <circle id="椭圆形_1_" class="st7" cx="7.9" cy="11.2" r="6"/>
          </g>
          <g id="icon" transform="translate(39 50)">
            <path id="形状" class="st8" d="M50.4 57.2v5H13.7v-5h36.7zm12.5-55v48.3H1.2V2.2h61.7zm-5 5H6.2v38.3h51.7V7.2zM22 24.1v11.7h-5V24.1h5zm12.5-6.7v18.3h-5V17.4h5zm12.5 5v13.3h-5V22.4h5z"/>
          </g>
        </g>
        <g id="_x32_" transform="translate(224 98.5)">
          <g id="wz1_1_">
            <text transform="translate(32.2479 25.1111)" class="st0 st1 st2">
              2019-07
            </text>
            <text transform="translate(23.1874 53.1111)" class="st0 st3 st4">
              产品原型测试
            </text>
          </g>
          <path id="路径_1_" class="st5" d="M71.2 307.5c-38.7 0-70-31.3-70-70 0-45.8 70-91.4 70-91.4s70 45.9 70 91.4c0 38.7-31.4 70-70 70z"/>
          <g id="icon_1_" transform="translate(39 211)">
            <path id="形状_1_" class="st8" d="M52.1 52.4v5H12.3v-5h39.8zM62.9 2.1v41.7H1.2V2.1h61.7zm-5 5H6.2v31.7h51.7V7.1zM24.1 13l3.5 3.5-6.4 6.5 6.5 6.5-3.6 3.5-10-10 10-10zM40 13l10 10-10 10-3.5-3.5L43 23l-6.5-6.5L40 13z"/>
          </g>
          <g id="点_1_" transform="rotate(-90 87 27)">
            <circle id="椭圆形_2_" class="st6" cx="7.9" cy="11.2" r="10"/>
            <circle id="椭圆形_3_" class="st7" cx="7.9" cy="11.2" r="6"/>
          </g>
        </g>
        <g id="_x33_" transform="translate(428 .5)">
          <g id="wz1_2_">
            <text transform="translate(32.2479 278.1111)" class="st0 st1 st2">
              2020-06
            </text>
            <text transform="translate(39.1874 306.1111)" class="st0 st3 st4">
              产品完成
            </text>
          </g>
          <path id="路径_2_" class="st5" d="M71.2 2.1c-38.7 0-70 31.3-70 70 0 45.8 70 91.4 70 91.4s70-45.9 70-91.4c0-38.6-31.4-70-70-70z"/>
          <g id="icon_2_" transform="translate(35 39)">
            <path id="形状_2_" class="st8" d="M36.6 2.2L47 12.5h14.7v14.6L72 37.5 61.6 47.9v14.7H47L36.6 72.9 26.2 62.5H11.6V47.9L1.3 37.5l10.4-10.4V12.5h14.6L36.6 2.2zm0 7l-8.3 8.3H16.6v11.7l-8.3 8.3 8.3 8.3v11.7h11.7l8.3 8.3 8.3-8.3h11.7V45.8l8.3-8.3-8.3-8.3V17.5H44.9l-8.3-8.3zm10.3 19.3l3.5 3.5-15.9 15.9-11.2-11.1 3.5-3.5 7.7 7.7 12.4-12.5z"/>
          </g>
          <g id="点_2_" transform="rotate(-90 136 76)">
            <circle id="椭圆形_4_" class="st6" cx="7.9" cy="11.2" r="10"/>
            <circle id="椭圆形_5_" class="st7" cx="7.9" cy="11.2" r="6"/>
          </g>
        </g>
        <g id="_x34_" transform="translate(632 98.5)">
          <g id="wz1_3_">
            <text transform="translate(32.2479 25.1111)" class="st0 st1 st2">
              2020-09
            </text>
            <text transform="translate(23.6194 53.1111)" class="st0 st3 st4">
              ALpha版发布
            </text>
          </g>
          <path id="路径_3_" class="st5" d="M71.2 307.5c-38.7 0-70-31.3-70-70 0-45.8 70-91.4 70-91.4s70 45.9 70 91.4c0 38.7-31.4 70-70 70z"/>
          <g id="icon_3_" transform="translate(40 197)">
            <path id="形状_3_" class="st8" d="M28.8 32.5h5l-.1 39.1h-5l.1-39.1zm2.5-30.3l14.9 15.2v12.2l15.3 15.3v11H46.1V63h-5V19.4L31.3 9.3l-9.9 10.1.1 36.4V63h-5v-7.2H1.2V44.9l15.3-15.3V17.4L31.3 2.2zm14.9 34.5v14.2h10.3V47L46.2 36.7zm-29.7 0L6.2 47v3.9h10.3V36.7z"/>
          </g>
          <g id="点_3_" transform="rotate(-90 87 27)">
            <circle id="椭圆形_6_" class="st6" cx="7.9" cy="11.2" r="10"/>
            <circle id="椭圆形_7_" class="st7" cx="7.9" cy="11.2" r="6"/>
          </g>
        </g>
        <g id="_x35_" transform="translate(836 .5)">
          <g id="wz1_4_">
            <text transform="translate(32.2479 278.1111)" class="st0 st1 st2">
              2020-11
            </text>
            <text transform="translate(31.1874 306.1111)" class="st0 st3 st4">
              正式版发布
            </text>
          </g>
          <path id="路径_4_" class="st5" d="M71.2 2.1c-38.7 0-70 31.3-70 70 0 45.8 70 91.4 70 91.4s70-45.9 70-91.4c0-38.6-31.4-70-70-70z"/>
          <g id="icon_4_" transform="rotate(-45 97.5772 6.2157)">
            <path id="形状_4_" class="st8" d="M26.9 32.7h5l-.1 39.1h-5l.1-39.1zm2.6-30.3l14.9 15.2v12.2l15.3 15.3v11H44.3v7.1h-5V19.7L29.5 9.6l-9.9 10.1.1 36.4v7.2h-5v-7.2H-.6v-11l15.2-15.3V17.6L29.5 2.4zm14.8 34.5v14.2h10.3v-3.9L44.3 36.9zm-29.7 0L4.4 47.2v3.9h10.3l-.1-14.2z"/>
          </g>
          <g id="点_4_" transform="rotate(-90 136 76)">
            <circle id="椭圆形_8_" class="st6" cx="7.9" cy="11.2" r="10"/>
            <circle id="椭圆形_9_" class="st7" cx="7.9" cy="11.2" r="6"/>
          </g>
        </g>
        <g id="_x36_" transform="translate(1040 98.5)">
          <g id="wz1_5_">
            <text transform="translate(32.2479 25.1111)" class="st0 st1 st2">
              2021-06
            </text>
            <text transform="translate(16.7794 53.1111)" class="st0 st3 st4">
              达到13000节点
            </text>
          </g>
          <path id="路径_5_" class="st5" d="M71.2 307.5c-38.7 0-70-31.3-70-70 0-45.8 70-91.4 70-91.4s70 45.9 70 91.4c0 38.7-31.4 70-70 70z"/>
          <g id="icon_5_" transform="translate(32 205)">
            <path id="形状_5_" class="st8" d="M39.1 2.2c7.7 0 15 3.2 20.3 8.7 9.1-.4 15.5 1.6 17.1 6.4 1.3 3.9-1 8.3-5.9 12.7l-.7.6c-.8.6-1.6 1.3-2.4 1.9l-.5.4c-1.3 14.2-13.3 25.3-27.9 25.3-8 0-15.2-3.4-20.3-8.7h-.6c-8.7.2-15-1.8-16.6-6.4-1.6-4.7 1.9-9.9 9-15.1l.6-.4C12.5 13.3 24.5 2.2 39.1 2.2zm22.1 34.4l-1.1.6-1.1.6-1.1.6-1.2.6-1.2.6-1.2.6-1.2.6-.6.3-1.6.7-1.6.7-1.3.3-1.3.5-.7.2-1.4.5-.7.2-1.4.5-1.4.4-1.4.4-1.2.5-2 .6-1.7.4-1.6.4-1.3.3-1.3.3-1.3.3-1.2.2-1.5.3-.9.1c3.9 2.8 8.6 4.4 13.5 4.4 10.4-.1 19.2-7.1 22-16.7zm-49.9-2.8c-3.8 3.3-5.5 6.1-5 7.7.5 1.4 2.4 2.3 5.4 2.8l.7.1c.5.1 1 .1 1.6.1h1c-2-3.3-3.2-6.9-3.7-10.7zM39.1 7.2c-12.7 0-23 10.3-23 23 0 5.3 1.8 10.2 4.8 14.1h.3l1.1-.1 1.1-.1 1.1-.2 1.2-.2 1.5-.2 1.5-.3 1.9-.4 1.3-.3 1.9-.5 1.3-.3 1.3-.4 1.3-.4.7-.2 1.3-.4 1.3-.4 1.4-.5 1.3-.5c.4-.2.9-.3 1.3-.5l1.3-.5.6-.3 1.3-.5 1.2-.5 1.2-.5 1.5-.7 1.5-.7.6-.3 1.1-.6 1.1-.6 1.1-.6 1-.6 1-.6.5-.3 1-.6.9-.6.3-.2C62.1 17.5 51.8 7.2 39.1 7.2zm24.1 8.7l.2.4c1.8 3.2 3 6.7 3.4 10.3l.7-.6.3-.3.6-.5c2.6-2.5 3.9-4.7 3.3-6.3-.5-1.6-3.5-2.8-8.5-3z"/>
          </g>
          <g id="点_5_" transform="rotate(-90 87 27)">
            <circle id="椭圆形_10_" class="st6" cx="7.9" cy="11.2" r="10"/>
            <circle id="椭圆形_11_" class="st7" cx="7.9" cy="11.2" r="6"/>
          </g>
        </g>
        <path id="直线" d="M-1.8 204.6c0-2.5 2-4.5 4.5-4.5 2.3 0 4.2 1.7 4.5 4h1194.1l-6.3-3.6-.4-.2.5-.9.4.2 8 4.5.8.4-.8.4-8 4.5-.4.2-.5-.9.4-.2 6.3-3.6H7.2c-.2 2.3-2.2 4-4.5 4-2.5.2-4.5-1.8-4.5-4.3zm1 0c0 1.9 1.6 3.5 3.5 3.5s3.5-1.6 3.5-3.5-1.6-3.5-3.5-3.5-3.5 1.6-3.5 3.5z" fill="#999"/>
      </g>
    </g>
  </g>
</svg>
